<svg width="8" height="15" viewBox="0 0 8 15" fill="none" xmlns="http://www.w3.org/2000/svg">
<path d="M1.00005 15C0.766399 15.0005 0.539963 14.9191 0.360051 14.77C0.258792 14.6861 0.175091 14.583 0.113739 14.4666C0.0523866 14.3503 0.0145903 14.223 0.00251444 14.092C-0.00956143 13.961 0.0043206 13.8289 0.0433651 13.7033C0.0824096 13.5777 0.145849 13.4611 0.230051 13.36L4.71005 8L0.390051 2.63C0.306985 2.52771 0.244954 2.41002 0.207522 2.28368C0.17009 2.15734 0.157996 2.02485 0.171936 1.89382C0.185875 1.76279 0.225572 1.63581 0.288745 1.52017C0.351919 1.40454 0.437324 1.30252 0.540051 1.22C0.643517 1.12897 0.764683 1.0603 0.895945 1.01831C1.02721 0.976319 1.16573 0.961916 1.30283 0.976001C1.43992 0.990085 1.57262 1.03236 1.6926 1.10016C1.81259 1.16796 1.91726 1.25983 2.00005 1.37L6.83005 7.37C6.97713 7.54893 7.05754 7.77338 7.05754 8.005C7.05754 8.23663 6.97713 8.46107 6.83005 8.64L1.83005 14.64C1.72973 14.761 1.6023 14.8567 1.45809 14.9192C1.31388 14.9818 1.15696 15.0095 1.00005 15Z" fill="white"/>
</svg>
