<svg width="32.000000" height="32.000000" viewBox="0 0 32 32" fill="none" xmlns="http://www.w3.org/2000/svg" xmlns:xlink="http://www.w3.org/1999/xlink">
	<defs>
		<filter id="filter_65_3478_dd" x="0.000000" y="0.000000" width="32.000000" height="32.000000" filterUnits="userSpaceOnUse" color-interpolation-filters="sRGB">
			<feFlood flood-opacity="0" result="BackgroundImageFix"/>
			<feColorMatrix in="SourceAlpha" type="matrix" values="0 0 0 0 0 0 0 0 0 0 0 0 0 0 0 0 0 0 127 0" result="hardAlpha"/>
			<feOffset dx="0" dy="4"/>
			<feGaussianBlur stdDeviation="1.33333"/>
			<feComposite in2="hardAlpha" operator="out" k2="-1" k3="1"/>
			<feColorMatrix type="matrix" values="0 0 0 0 0 0 0 0 0 0 0 0 0 0 0 0 0 0 0.25 0"/>
			<feBlend mode="normal" in2="BackgroundImageFix" result="effect_dropShadow_1"/>
			<feBlend mode="normal" in="SourceGraphic" in2="effect_dropShadow_1" result="shape"/>
		</filter>
	</defs>
	<g filter="url(#filter_65_3478_dd)">
		<g opacity="0.000000">
			<path id="Vector" d="M4 0L28 0L28 24L4 24L4 0Z" fill="#397DF6" fill-opacity="1.000000" fill-rule="evenodd"/>
		</g>
		<path id="Vector" d="M18 12C18 13.1 17.1 14 16 14C14.89 14 14 13.1 14 12C14 10.89 14.89 10 16 10C17.1 10 18 10.89 18 12Z" fill="#397DF6" fill-opacity="1.000000" fill-rule="evenodd"/>
		<path id="Vector" d="M25 12C25 13.1 24.1 14 23 14C21.89 14 21 13.1 21 12C21 10.89 21.89 10 23 10C24.1 10 25 10.89 25 12Z" fill="#397DF6" fill-opacity="1.000000" fill-rule="evenodd"/>
		<path id="Vector" d="M11 12C11 13.1 10.1 14 9 14C7.89 14 7 13.1 7 12C7 10.89 7.89 10 9 10C10.1 10 11 10.89 11 12Z" fill="#397DF6" fill-opacity="1.000000" fill-rule="evenodd"/>
	</g>
</svg>
