<svg width="16.000000" height="16.000000" viewBox="0 0 16 16" fill="none" xmlns="http://www.w3.org/2000/svg" xmlns:xlink="http://www.w3.org/1999/xlink">
	<desc>
			Created with Pixso.
	</desc>
	<defs/>
	<g opacity="0.000000">
		<path id="Vector" d="M0 0L16 0L16 16L0 16L0 0Z" fill="#CC1439" fill-opacity="1.000000" fill-rule="evenodd"/>
	</g>
	<path id="Vector" d="M8 14C7.91 14 7.82 13.98 7.74 13.95C7.66 13.91 7.58 13.86 7.52 13.8L2.34 8.62C1.69 7.96 1.33 7.07 1.33 6.15C1.33 5.22 1.69 4.34 2.34 3.68C3 3.03 3.88 2.66 4.81 2.66C5.73 2.66 6.62 3.03 7.27 3.68L8 4.4L8.71 3.68C9.37 3.03 10.26 2.66 11.18 2.66C12.11 2.66 12.99 3.03 13.65 3.68C14.3 4.34 14.66 5.22 14.66 6.15C14.66 7.07 14.3 7.96 13.65 8.62L8.47 13.8C8.41 13.86 8.33 13.91 8.25 13.95C8.17 13.98 8.08 14 8 14Z" fill="#CC1439" fill-opacity="1.000000" fill-rule="nonzero"/>
</svg>
