<svg width="16.040771" height="12.043854" viewBox="0 0 16.0408 12.0439" fill="none" xmlns="http://www.w3.org/2000/svg" xmlns:xlink="http://www.w3.org/1999/xlink">
	<desc>
			Created with Pixso.
	</desc>
	<defs/>
	<path id="Vector" d="M5.86 12.04C5.72 12.04 5.58 12.01 5.46 11.95C5.33 11.9 5.22 11.82 5.13 11.72L0.27 6.55C0.08 6.36 -0.01 6.1 0 5.83C0 5.57 0.12 5.32 0.31 5.13C0.5 4.95 0.76 4.85 1.03 4.86C1.29 4.87 1.54 4.99 1.73 5.18L5.85 9.57L14.26 0.37C14.34 0.26 14.45 0.17 14.57 0.11C14.69 0.05 14.82 0.01 14.96 0C15.09 -0.01 15.23 0 15.36 0.05C15.49 0.09 15.61 0.16 15.71 0.25C15.81 0.35 15.89 0.46 15.95 0.58C16 0.7 16.03 0.84 16.04 0.97C16.04 1.11 16.01 1.25 15.96 1.37C15.91 1.5 15.83 1.61 15.74 1.71L6.6 11.71C6.5 11.81 6.39 11.89 6.27 11.95C6.14 12.01 6 12.04 5.87 12.04L5.86 12.04Z" fill="#000000" fill-opacity="1.000000" fill-rule="nonzero"/>
</svg>
